<svg xmlns="http://www.w3.org/2000/svg" viewBox="0 0 658.93 162.53" xmlns:v="https://vecta.io/nano"><path d="M81.23 0a81.23 81.23 0 1 0 81.23 81.23A81.24 81.24 0 0 0 81.23 0zm0 142.77a61.54 61.54 0 1 1 61.54-61.54 61.6 61.6 0 0 1-61.54 61.54z" fill="#f0f1f2"/><path d="M71.38 93.1a14.75 14.75 0 0 0 19.7 0V69.5a14.72 14.72 0 0 0-19.7 0zm9.85-53.64a41.76 41.76 0 0 0-29.56 12.26l13.9 13.92a22.14 22.14 0 0 1 31.31 0l13.92-13.92a41.74 41.74 0 0 0-29.58-12.26zM96.9 97a22.13 22.13 0 0 1-31.31 0l-13.9 13.88a41.8 41.8 0 0 0 59.14 0zm-15.7 65.53a20.88 20.88 0 0 0-14.38-21.42h-.08a61.62 61.62 0 0 1-46-49.94h40.8a21.26 21.26 0 0 1 0-19.7H20.7a61.37 61.37 0 0 1 92.43-42.78h0a19.64 19.64 0 0 0 25.6-4.77A81.23 81.23 0 1 0 81.2 162.53z" fill="#ffbb17"/><g fill="#88888c"><path d="M207.87 55.28v35a13.9 13.9 0 0 1-6.54 0v-35h-4.1a5.2 5.2 0 0 1-.39-2.13 5.78 5.78 0 0 1 .39-2.2h4.1v-4.73c0-7.17 3-11.27 11-11.27a26.08 26.08 0 0 1 6.85.86 7.2 7.2 0 0 1 .32 2 7.11 7.11 0 0 1-.32 2 18.55 18.55 0 0 0-4.73-.63c-5.12 0-6.62 2.2-6.62 6.94V51h11.35a5.66 5.66 0 0 1 .4 2.2 5.5 5.5 0 0 1-.4 2.13zm25.47.8s4.73-5.36 14-5.36a8.11 8.11 0 0 1 .31 2.29 7.75 7.75 0 0 1-.31 2.2 16.39 16.39 0 0 0-14 7.18v27.9a16.4 16.4 0 0 1-3.24.39 15.61 15.61 0 0 1-3.31-.39V51.34a15.61 15.61 0 0 1 3.31-.34 15.38 15.38 0 0 1 3.24.39zm20.4 7.17c0-8 4.26-12.53 15.84-12.53 11.83 0 15.53 4.57 15.53 12.53v9a102.66 102.66 0 0 1-12.45.63H260.3v5.52c0 5.6 2.45 8.2 10.4 8.2 8.27 0 13.24-2.75 13.24-2.75a5 5 0 0 1 .47 2.2 4.87 4.87 0 0 1-.47 2.13s-4.5 2.76-13.24 2.76c-12.38 0-16.95-4.57-16.95-12.53zm25.15 5.28v-5.28c0-5.6-2.2-8.2-9.3-8.2s-9.3 2.6-9.3 8.2v5.28zm14.98-5.28c0-8 4.25-12.53 15.84-12.53 11.82 0 15.53 4.57 15.53 12.53v9a102.74 102.74 0 0 1-12.46.63h-12.37v5.52c0 5.6 2.44 8.2 10.4 8.2 8.28 0 13.24-2.75 13.24-2.75a4.87 4.87 0 0 1 .48 2.2 4.79 4.79 0 0 1-.48 2.13s-4.5 2.76-13.24 2.76c-12.37 0-16.94-4.57-16.94-12.53zM319 68.52v-5.28c0-5.6-2.2-8.2-9.3-8.2s-9.3 2.6-9.3 8.2v5.28zm28.08 17.82a6.24 6.24 0 0 1 .32 2 5.52 5.52 0 0 1-.32 1.89 11.67 11.67 0 0 1-4.1.71c-5.9 0-8.1-3.23-8.1-8.83V35.58a13.56 13.56 0 0 1 6.54 0v46.5c0 3.07.94 4.5 3.7 4.5a14.78 14.78 0 0 0 1.97-.23zm30.92.8s-4.73 3.78-13.63 3.78c-7.88 0-10.88-3.86-10.88-10.64V79.1c0-6.3 4-9.7 14.2-10.8L378 67.2v-4.4c0-5.2-2.2-7.72-8.9-7.72-6.54 0-8.67 2.44-8.67 7.56v1a13.92 13.92 0 0 1-3.08.39 14.14 14.14 0 0 1-3.15-.39v-1c0-7.56 3.47-11.9 14.9-11.9 11.27 0 15.37 4.34 15.37 12.06v27.5a15.34 15.34 0 0 1-3.23.39 14.43 14.43 0 0 1-3.24-.39zm-9.22-14.66c-6.62.7-8.75 2.9-8.75 6.62v1.18c0 4.26 1.58 6.3 6.7 6.3 8.12 0 11.27-3.86 11.27-3.86V71.36zm32.07-17.97s4.65-3.78 13.32-3.78S426 55.28 426 63.24v27a15.61 15.61 0 0 1-3.31.39 15.22 15.22 0 0 1-3.23-.39v-27c0-5.6-1.74-8.2-7.4-8.2-8.12 0-11.2 3.86-11.2 3.86v31.37a16.4 16.4 0 0 1-3.24.39 15.61 15.61 0 0 1-3.31-.39V51.34a15.61 15.61 0 0 1 3.31-.39 15.38 15.38 0 0 1 3.24.39zm34.6 8.74c0-8 4.18-12.53 15.45-12.53s14.9 4.57 14.9 12.53v1a12.77 12.77 0 0 1-3 .39 12.39 12.39 0 0 1-2.91-.39v-1c0-5.6-2.13-8.2-9-8.2s-8.9 2.6-8.9 8.2v15.14c0 5.6 2.37 8.2 10 8.2 7.9 0 12.6-2.75 12.6-2.75a4.87 4.87 0 0 1 .48 2.2 4.79 4.79 0 0 1-.48 2.13s-4.25 2.76-12.6 2.76c-12.06 0-16.55-4.57-16.55-12.53z"/><path d="M473.92 63.24c0-8 4.26-12.53 15.84-12.53 11.83 0 15.53 4.57 15.53 12.53v9a102.66 102.66 0 0 1-12.45.63h-12.38v5.52c0 5.6 2.45 8.2 10.4 8.2 8.27 0 13.24-2.75 13.24-2.75a5 5 0 0 1 .47 2.2 4.87 4.87 0 0 1-.47 2.13s-4.5 2.76-13.24 2.76c-12.38 0-16.95-4.57-16.95-12.53zm25.14 5.28v-5.28c0-5.6-2.2-8.2-9.3-8.2s-9.3 2.6-9.3 8.2v5.28zm22.4-14.02s4.65-3.78 13.24-3.78 11.67 4.57 11.67 12.53v27a15.61 15.61 0 0 1-3.31.39 15.22 15.22 0 0 1-3.23-.39v-27c0-5.6-1.74-8.2-7.26-8.2-8 0-11.1 3.86-11.1 3.86v31.37a16.24 16.24 0 0 1-3.23.39 15.61 15.61 0 0 1-3.31-.39v-54.7a15.24 15.24 0 0 1 3.31-.4 15 15 0 0 1 3.23.4zm59.45 32.63s-4.65 3.78-13.16 3.78S556 86.34 556 78.38v-27a15.61 15.61 0 0 1 3.31-.39 15.22 15.22 0 0 1 3.23.39v27c0 5.6 1.74 8.2 7.25 8.2 8 0 11.12-3.86 11.12-3.86V51.34a16.24 16.24 0 0 1 3.23-.39 15.61 15.61 0 0 1 3.31.39v38.94a15.61 15.61 0 0 1-3.31.39 15.22 15.22 0 0 1-3.23-.39zm22.7-32.63s4.65-3.78 13.32-3.78 11.82 4.57 11.82 12.53v27a13.9 13.9 0 0 1-6.54 0v-27c0-5.6-1.73-8.2-7.4-8.2-8.12 0-11.2 3.86-11.2 3.86v31.37a16.37 16.37 0 0 1-3.23.39 15.49 15.49 0 0 1-3.31-.39V51.34a13.9 13.9 0 0 1 6.54 0zm43.82.94v24.2c0 4.73 1.65 6.93 6.78 6.93a14.36 14.36 0 0 0 4.33-.78 6.19 6.19 0 0 1 0 3.93 20.9 20.9 0 0 1-6.46 1.19C644 90.9 641 86.8 641 79.64v-24.2h-4.1a5.56 5.56 0 0 1-.4-2.13 5.66 5.66 0 0 1 .4-2.2h4.4l.63-7.65a10 10 0 0 1 5.52 0v7.65h11.1a5.66 5.66 0 0 1 .4 2.2 5.56 5.56 0 0 1-.4 2.13zm-450.6 54h2l.54 2.16h.15a5.42 5.42 0 0 1 2.14-1.92 6.46 6.46 0 0 1 3-.67 6.61 6.61 0 0 1 5.37 2.12q1.76 2.13 1.76 6.95a13.33 13.33 0 0 1-.59 4.09 9 9 0 0 1-1.68 3.08 7.38 7.38 0 0 1-2.61 1.94 8.16 8.16 0 0 1-3.4.68 10.51 10.51 0 0 1-2.1-.16 8.26 8.26 0 0 1-1.68-.56v7.5h-2.88zm7.27 2.1a4.18 4.18 0 0 0-2.89 1 5.38 5.38 0 0 0-1.5 2.9v8.93a4.74 4.74 0 0 0 1.48.77 7.24 7.24 0 0 0 2.19.27 4.76 4.76 0 0 0 4-1.85 8.7 8.7 0 0 0 1.45-5.45 13.09 13.09 0 0 0-.25-2.69 6 6 0 0 0-.81-2 3.86 3.86 0 0 0-1.44-1.31 4.62 4.62 0 0 0-2.23-.57zm11.9-.77a10.24 10.24 0 0 1 3.19-1.22 18 18 0 0 1 3.79-.4 7.45 7.45 0 0 1 3 .51 4.14 4.14 0 0 1 1.73 1.31 4.6 4.6 0 0 1 .79 1.78 9.93 9.93 0 0 1 .2 2l-.1 4.2c-.1 1.37-.1 2.66-.1 3.9l.1 2.52a11.07 11.07 0 0 0 .4 2.19h-2.13l-.75-2.52h-.1a6.07 6.07 0 0 1-.81 1 5.24 5.24 0 0 1-1.17.87 7.75 7.75 0 0 1-1.59.63 7.52 7.52 0 0 1-2 .25 6.2 6.2 0 0 1-2.14-.36 4.92 4.92 0 0 1-1.71-1 4.76 4.76 0 0 1-1.14-1.6 5.27 5.27 0 0 1-.41-2.12 5 5 0 0 1 .65-2.65 4.65 4.65 0 0 1 1.82-1.69 8.86 8.86 0 0 1 2.8-.9 22.42 22.42 0 0 1 3.62-.27h1a6.69 6.69 0 0 1 1 .07l.1-1.94a3.88 3.88 0 0 0-.79-2.77 4 4 0 0 0-2.88-.8 9 9 0 0 0-1.32.1 13.74 13.74 0 0 0-1.44.26 11.44 11.44 0 0 0-1.4.4 7.08 7.08 0 0 0-1.17.54zm5.1 14.44a5.58 5.58 0 0 0 1.8-.27 5.31 5.31 0 0 0 1.37-.68 4.63 4.63 0 0 0 .95-.92 3.94 3.94 0 0 0 .56-1v-3c-.34 0-.68 0-1-.06h-1a19.5 19.5 0 0 0-2.18.12 7 7 0 0 0-1.87.47 3.33 3.33 0 0 0-1.3.94 2.28 2.28 0 0 0-.48 1.49 2.66 2.66 0 0 0 .9 2.07 3.31 3.31 0 0 0 2.27.84zm14.72-12.56a6.87 6.87 0 0 1 2.63-2.43 8.16 8.16 0 0 1 3.6-.71 6.23 6.23 0 0 1 5.09 2.16q1.8 2.16 1.78 6.38c0 3.24-.7 5.68-2.07 7.34a7.09 7.09 0 0 1-5.78 2.48 6.86 6.86 0 0 1-5.94-2.73c-1.32-1.83-2-4.7-2-8.6a39.75 39.75 0 0 1 .31-5.29 16.13 16.13 0 0 1 .9-3.71 7.7 7.7 0 0 1 1.44-2.41 6.56 6.56 0 0 1 1.91-1.42A8.63 8.63 0 0 1 240 103q1.26-.2 2.7-.36a27 27 0 0 0 2.93-.41 3.54 3.54 0 0 0 1.71-.85l.33 2.6a3.46 3.46 0 0 1-.79.54 4.29 4.29 0 0 1-1 .36 15.27 15.27 0 0 1-1.46.26c-.57.08-1.2.13-2 .18a17.56 17.56 0 0 0-2.72.37 4.33 4.33 0 0 0-2 1.05 5.07 5.07 0 0 0-1.33 2.19 15.46 15.46 0 0 0-.67 3.77zm.32 5.83a11.91 11.91 0 0 0 .29 2.63 7.3 7.3 0 0 0 .88 2.21 4.19 4.19 0 0 0 3.73 2 4.16 4.16 0 0 0 3.69-1.78 9.47 9.47 0 0 0 1.2-5.27 11.7 11.7 0 0 0-.25-2.52 6.11 6.11 0 0 0-.79-2 3.78 3.78 0 0 0-1.37-1.3 4.08 4.08 0 0 0-2-.45 4.8 4.8 0 0 0-4.1 1.64 7.69 7.69 0 0 0-1.28 4.84zm16.3-.04q0-4.58 2-7a7.21 7.21 0 0 1 5.85-2.43 8.42 8.42 0 0 1 3.51.67 6.39 6.39 0 0 1 2.47 1.9 8.24 8.24 0 0 1 1.44 3 15.09 15.09 0 0 1 .47 3.87q0 4.57-2 7a7.18 7.18 0 0 1-5.85 2.43 8.65 8.65 0 0 1-3.51-.66 6.45 6.45 0 0 1-2.46-1.91 8.16 8.16 0 0 1-1.44-3 15 15 0 0 1-.48-3.87zm3 0a12.54 12.54 0 0 0 .27 2.63 7.1 7.1 0 0 0 .84 2.2 4.67 4.67 0 0 0 1.52 1.51 4.26 4.26 0 0 0 2.26.57c3.27 0 4.9-2.28 4.9-6.9a12.69 12.69 0 0 0-.27-2.66 6.87 6.87 0 0 0-.85-2.2 4.31 4.31 0 0 0-1.51-1.49 4.37 4.37 0 0 0-2.27-.56q-4.9-.03-4.9 6.9zm28.18-6.43H278v15.48h-2.88V112h-5.62v-2.52h14.12zm2.55-1.24a10.34 10.34 0 0 1 3.19-1.22 18.06 18.06 0 0 1 3.8-.4 7.4 7.4 0 0 1 3 .51 4.14 4.14 0 0 1 1.73 1.35 4.45 4.45 0 0 1 .79 1.78 9.93 9.93 0 0 1 .2 2l-.1 4.2c-.1 1.37-.1 2.66-.1 3.9l.1 2.52a11.85 11.85 0 0 0 .4 2.19h-2.13l-.75-2.6h-.18a6.07 6.07 0 0 1-.81 1 5.24 5.24 0 0 1-1.17.87 7.75 7.75 0 0 1-1.59.63 7.52 7.52 0 0 1-2.05.25 6.2 6.2 0 0 1-2.14-.36 4.92 4.92 0 0 1-1.71-1 4.6 4.6 0 0 1-1.13-1.6 5.11 5.11 0 0 1-.42-2.12 5 5 0 0 1 .65-2.65 4.65 4.65 0 0 1 1.82-1.69 8.93 8.93 0 0 1 2.81-.9 22.21 22.21 0 0 1 3.61-.27h1a6.59 6.59 0 0 1 1 .07 17.58 17.58 0 0 0 .11-1.94 3.84 3.84 0 0 0-.79-2.77 4 4 0 0 0-2.88-.8 8.72 8.72 0 0 0-1.31.1 12.87 12.87 0 0 0-1.44.26 11.6 11.6 0 0 0-1.41.4 7.08 7.08 0 0 0-1.17.54zm5.1 14.44a5.5 5.5 0 0 0 1.8-.27 5.31 5.31 0 0 0 1.37-.68 4.69 4.69 0 0 0 1-.92 4.22 4.22 0 0 0 .55-1v-3c-.33 0-.67 0-1-.06h-1a19.5 19.5 0 0 0-2.18.12 7.11 7.11 0 0 0-1.87.47 3.23 3.23 0 0 0-1.29.94 2.23 2.23 0 0 0-.49 1.49 2.66 2.66 0 0 0 .9 2.07 3.31 3.31 0 0 0 2.21.84zm22.66-15.73l2.64-.18 3.44-.1q3.57 0 5.1 1.1a3.79 3.79 0 0 1 1.55 3.33 4.57 4.57 0 0 1-.74 2.46 4.35 4.35 0 0 1-2.43 1.79v.14a4.78 4.78 0 0 1 3 1.48 5.13 5.13 0 0 1-1.15 6.94 11.59 11.59 0 0 1-6.05 1.26c-1 0-1.94 0-2.8-.1l-2.55-.2zm6.4 7.56a3.63 3.63 0 0 0 1.26-.22 3.82 3.82 0 0 0 1.09-.59 3.33 3.33 0 0 0 .8-.88 2.1 2.1 0 0 0 .3-1.08 2.21 2.21 0 0 0-.86-2 6 6 0 0 0-3-.56h-1.8l-1.28.07V117zm-3.53 8c.45 0 .9.1 1.35.1h1.56a7.29 7.29 0 0 0 3.59-.68 2.5 2.5 0 0 0 1.17-2.34 2.61 2.61 0 0 0-1-2.11 5.69 5.69 0 0 0-3.51-.81h-3.17zM352.13 112h-5.6v15.48h-2.88V112H338v-2.52h14.1zm2.87-2.53l2.64-.18 3.44-.1q3.57 0 5.1 1.1a3.81 3.81 0 0 1 1.55 3.33 4.66 4.66 0 0 1-.74 2.46 4.35 4.35 0 0 1-2.43 1.79v.14a4.81 4.81 0 0 1 3 1.48 5.13 5.13 0 0 1-1.15 6.94 11.59 11.59 0 0 1-6.05 1.26c-1 0-1.94 0-2.8-.1l-2.56-.2zm6.4 7.56a3.63 3.63 0 0 0 1.26-.22 3.82 3.82 0 0 0 1.09-.59 3.33 3.33 0 0 0 .8-.88 2.1 2.1 0 0 0 .3-1.08 2.21 2.21 0 0 0-.86-2 6 6 0 0 0-3-.56h-1.8l-1.28.07V117zm-3.53 8c.45 0 .9.1 1.35.1h1.56a7.32 7.32 0 0 0 3.59-.68 2.51 2.51 0 0 0 1.17-2.34 2.64 2.64 0 0 0-1-2.11 5.73 5.73 0 0 0-3.51-.81h-3.17zm14.06-6.6q0-4.58 2-7a7.18 7.18 0 0 1 5.85-2.43 8.49 8.49 0 0 1 3.51.67 6.43 6.43 0 0 1 2.46 1.9 8.24 8.24 0 0 1 1.44 3 14.66 14.66 0 0 1 .47 3.87q0 4.57-2 7a7.21 7.21 0 0 1-5.85 2.43 8.59 8.59 0 0 1-3.51-.66 6.41 6.41 0 0 1-2.47-1.91 8.16 8.16 0 0 1-1.44-3 15 15 0 0 1-.46-3.87zm3 0a12.54 12.54 0 0 0 .27 2.63 6.87 6.87 0 0 0 .85 2.2 4.54 4.54 0 0 0 1.51 1.51 4.27 4.27 0 0 0 2.27.57c3.26 0 4.9-2.28 4.9-6.9a12.69 12.69 0 0 0-.27-2.66 7.1 7.1 0 0 0-.84-2.2 4.48 4.48 0 0 0-1.51-1.49 4.42 4.42 0 0 0-2.27-.56q-4.9-.03-4.9 6.9zm30.45 7.57a8.17 8.17 0 0 1-2.72 1.37 11.62 11.62 0 0 1-3.48.5 8.87 8.87 0 0 1-3.56-.66 6.37 6.37 0 0 1-2.48-1.91 8.23 8.23 0 0 1-1.44-3 14.55 14.55 0 0 1-.47-3.89q0-4.6 2-7a7.27 7.27 0 0 1 5.87-2.41 11.42 11.42 0 0 1 2.45.27 5.22 5.22 0 0 1 3.78 3.17 9.28 9.28 0 0 1 .61 3.65 17.14 17.14 0 0 1-.22 2.63h-11.5a11.31 11.31 0 0 0 .32 2.81 5.56 5.56 0 0 0 1 2.07 4.43 4.43 0 0 0 1.78 1.29 7.08 7.08 0 0 0 2.68.45 7.27 7.27 0 0 0 2.45-.43 5.14 5.14 0 0 0 1.84-1zm-11.63-21.42a1.86 1.86 0 0 1 .48-1.33 1.89 1.89 0 0 1 2.56 0 1.82 1.82 0 0 1 .49 1.33 1.7 1.7 0 0 1-.49 1.26 1.86 1.86 0 0 1-2.56 0 1.74 1.74 0 0 1-.48-1.27zm5.43 7a5 5 0 0 0-3.4 1.12 5.58 5.58 0 0 0-1.53 3.81h8.93a5.56 5.56 0 0 0-1-3.83 3.9 3.9 0 0 0-3-1.16zm1.48-7a1.82 1.82 0 0 1 .49-1.33 1.67 1.67 0 0 1 1.27-.5 1.72 1.72 0 0 1 1.32.5 1.86 1.86 0 0 1 .48 1.33 1.7 1.7 0 0 1-1.8 1.77 1.67 1.67 0 0 1-1.27-.51 1.7 1.7 0 0 1-.49-1.27zm24.74 12.16l.22-3.42h-.18l-1.3 2.77-4.35 7.06h-1l-4.54-7.06-1.24-2.77h-.14l.3 3.38v10.73h-2.67v-18h2.85l5 8.07 1 2.08h.07l1.08-2.16 4.72-8h2.88v18h-2.8zm26.06 10.84a5 5 0 0 1-1.28.25h-1.2a6 6 0 0 1-5-2.3c-1.17-1.54-1.76-3.9-1.76-7.13s.65-5.4 1.94-7a6.9 6.9 0 0 1 5.62-2.34 8.63 8.63 0 0 1 1.73.15v-7.06h2.73v7.1l1.15-.14c.33-.02.66 0 1 0a6.73 6.73 0 0 1 5.36 2.07q1.8 2.07 1.8 6.86a15.6 15.6 0 0 1-.49 4.09 8.85 8.85 0 0 1-1.42 3.08 6.43 6.43 0 0 1-2.28 1.94 6.76 6.76 0 0 1-3.12.68h-.95a4.17 4.17 0 0 1-1-.2v7h-2.73zm-1.77-2.1a8.44 8.44 0 0 0 .87 0 7 7 0 0 0 .93-.14v-13.7c-.3 0-.56-.08-.8-.1a8.08 8.08 0 0 0-.92 0 4.09 4.09 0 0 0-3.47 1.67 8.86 8.86 0 0 0-1.24 5.24 13.75 13.75 0 0 0 .27 2.81 7.21 7.21 0 0 0 .84 2.25 4.23 4.23 0 0 0 1.46 1.48 4.08 4.08 0 0 0 2.07.48zm6.1-14h-.8a4 4 0 0 0-.84.16v13.68a4.77 4.77 0 0 0 .81.09h1a3.82 3.82 0 0 0 3.47-1.91 10.63 10.63 0 0 0 1.17-5.51 9.18 9.18 0 0 0-1.06-4.8 4 4 0 0 0-3.77-1.68zm11.04 6.95q0-4.58 2-7a7.21 7.21 0 0 1 5.85-2.43 8.42 8.42 0 0 1 3.51.67 6.39 6.39 0 0 1 2.47 1.9 8.24 8.24 0 0 1 1.44 3 15.09 15.09 0 0 1 .47 3.87q0 4.57-2 7a7.18 7.18 0 0 1-5.85 2.43 8.65 8.65 0 0 1-3.51-.66 6.38 6.38 0 0 1-2.46-1.91 8.16 8.16 0 0 1-1.44-3 14.55 14.55 0 0 1-.48-3.87zm3 0a12.54 12.54 0 0 0 .27 2.63 7.1 7.1 0 0 0 .84 2.2 4.73 4.73 0 0 0 1.51 1.51 4.3 4.3 0 0 0 2.27.57c3.27 0 4.9-2.28 4.9-6.9a12.69 12.69 0 0 0-.27-2.66 6.87 6.87 0 0 0-.85-2.2 4.2 4.2 0 0 0-3.78-2q-4.9-.08-4.9 6.86zm17.3-9h2l.54 2.16h.15a5.42 5.42 0 0 1 2.14-1.92 6.46 6.46 0 0 1 3-.67 6.61 6.61 0 0 1 5.37 2.12q1.76 2.13 1.76 6.95a13.33 13.33 0 0 1-.59 4.09 9 9 0 0 1-1.68 3.08 7.38 7.38 0 0 1-2.61 1.94 8.16 8.16 0 0 1-3.4.68 10.51 10.51 0 0 1-2.1-.16 8.26 8.26 0 0 1-1.68-.56v7.5h-2.88zm7.27 2.1a4.18 4.18 0 0 0-2.89 1 5.38 5.38 0 0 0-1.5 2.9v8.93a4.63 4.63 0 0 0 1.48.77 7.24 7.24 0 0 0 2.19.27 4.76 4.76 0 0 0 3.95-1.85 8.7 8.7 0 0 0 1.45-5.45 13.09 13.09 0 0 0-.25-2.69 6 6 0 0 0-.81-2 3.86 3.86 0 0 0-1.44-1.31 4.62 4.62 0 0 0-2.18-.57zm27.07 5.2l.22-3.42h-.18l-1.3 2.77-4.35 7.06h-1l-4.53-7.06-1.2-2.77H509l.3 3.38v10.73h-2.66v-18h2.84l5 8.07 1 2.08h.07l1.08-2.16 4.7-8h2.88v18h-2.8zm8.07-5.98a10.28 10.28 0 0 1 3.18-1.22 18.14 18.14 0 0 1 3.8-.4 7.45 7.45 0 0 1 3 .51 4.14 4.14 0 0 1 1.73 1.31 4.6 4.6 0 0 1 .79 1.78 9.93 9.93 0 0 1 .2 2l-.1 4.2c-.1 1.37-.1 2.66-.1 3.9l.1 2.52a11.07 11.07 0 0 0 .4 2.19h-2.13l-.76-2.52h-.18a5.52 5.52 0 0 1-.8 1 5.24 5.24 0 0 1-1.17.87 7.75 7.75 0 0 1-1.59.63 7.52 7.52 0 0 1-2 .25 6.2 6.2 0 0 1-2.14-.36 4.92 4.92 0 0 1-1.71-1 4.76 4.76 0 0 1-1.14-1.6 5.27 5.27 0 0 1-.41-2.12 4.94 4.94 0 0 1 .65-2.65 4.62 4.62 0 0 1 1.81-1.69 9 9 0 0 1 2.81-.9 22.33 22.33 0 0 1 3.62-.27h1a6.69 6.69 0 0 1 1 .07l.1-1.94a3.88 3.88 0 0 0-.79-2.77 4 4 0 0 0-2.88-.8 9 9 0 0 0-1.32.1 12.87 12.87 0 0 0-1.51.15 11.44 11.44 0 0 0-1.4.4 6.39 6.39 0 0 0-1.17.54zm5.1 14.44a5.58 5.58 0 0 0 1.8-.27 5.48 5.48 0 0 0 1.37-.68 4.63 4.63 0 0 0 .95-.92 4.29 4.29 0 0 0 .56-1v-3c-.34 0-.68 0-1-.06h-1a19.37 19.37 0 0 0-2.18.12 7 7 0 0 0-1.87.47 3.33 3.33 0 0 0-1.3.94 2.28 2.28 0 0 0-.48 1.49 2.66 2.66 0 0 0 .9 2.07 3.3 3.3 0 0 0 2.25.84zm24.5-13.2h-5.62v15.48h-2.88V112H545v-2.52h14.1zm15.4 14a8.17 8.17 0 0 1-2.72 1.37 11.6 11.6 0 0 1-3.47.5 8.89 8.89 0 0 1-3.57-.66 6.37 6.37 0 0 1-2.48-1.91 8.23 8.23 0 0 1-1.44-3 15 15 0 0 1-.47-3.89q0-4.6 2.05-7a7.28 7.28 0 0 1 5.87-2.41 11.35 11.35 0 0 1 2.45.27 5.22 5.22 0 0 1 3.78 3.17 9.1 9.1 0 0 1 .61 3.65 17.14 17.14 0 0 1-.22 2.63h-11.55a11.31 11.31 0 0 0 .32 2.81 5.56 5.56 0 0 0 1 2.07 4.43 4.43 0 0 0 1.78 1.29 7.08 7.08 0 0 0 2.68.45 7.23 7.23 0 0 0 2.45-.43 5.14 5.14 0 0 0 1.84-1zm-6.2-14.47a5 5 0 0 0-3.41 1.12 5.58 5.58 0 0 0-1.53 3.81h8.93a5.56 5.56 0 0 0-1-3.83 3.89 3.89 0 0 0-2.99-1.11z"/></g></svg>