<?xml version="1.0" encoding="iso-8859-1"?>
<!-- Generator: Adobe Illustrator 19.0.0, SVG Export Plug-In . SVG Version: 6.00 Build 0)  -->
<svg version="1.1" id="Capa_1" xmlns="http://www.w3.org/2000/svg" xmlns:xlink="http://www.w3.org/1999/xlink" x="0px" y="0px"
	 viewBox="0 0 512 512" style="enable-background:new 0 0 512 512;" xml:space="preserve">
<path style="fill:#063E8B;" d="M435.985,196c-2.769,0-5.581-0.762-8.086-2.373L270.941,92.831
	c-6.973-4.482-8.994-13.755-4.526-20.728c4.482-7.002,13.755-9.038,20.728-4.526l156.958,100.796
	c6.973,4.482,8.994,13.755,4.526,20.728C445.756,193.568,440.922,196,435.985,196z"/>
<path style="fill:#0A4EAF;" d="M76.015,196c-4.937,0-9.771-2.432-12.642-6.899c-4.468-6.973-2.446-16.245,4.526-20.728
	L224.857,67.577c6.958-4.512,16.23-2.476,20.728,4.526c4.468,6.973,2.446,16.245-4.526,20.728L84.101,193.627
	C81.596,195.238,78.783,196,76.015,196z"/>
<path style="fill:#FEA832;" d="M467,166H46c-24.901,0-46,20.099-46,45v240c0,24.901,21.099,45,46,45h421c24.901,0,45-20.099,45-45
	V211C512,186.099,491.901,166,467,166z"/>
<path style="fill:#FE9923;" d="M512,211v240c0,24.901-20.099,45-45,45H256V166h211C491.901,166,512,186.099,512,211z"/>
<path style="fill:#994C0F;" d="M467,196H46c-8.401,0-15,6.599-15,15v240c0,8.401,6.599,15,15,15h421c8.401,0,15-6.599,15-15V211
	C482,202.599,475.401,196,467,196z"/>
<path style="fill:#713708;" d="M482,211v240c0,8.401-6.599,15-15,15H256V196h211C475.401,196,482,202.599,482,211z"/>
<g>
	<path style="fill:#FEDB41;" d="M122.582,397.709L91,334.545V391c0,8.291-6.709,15-15,15s-15-6.709-15-15V271
		c0-6.958,4.79-13.008,11.558-14.604c6.68-1.567,13.755,1.655,16.86,7.896L121,327.455V271c0-8.291,6.709-15,15-15s15,6.709,15,15
		v120c0,6.958-4.79,13.008-11.558,14.604C132.496,407.207,125.618,403.797,122.582,397.709z"/>
	<path style="fill:#FEDB41;" d="M271,391c0,8.401-6.599,15-15,15h-60c-8.401,0-15-6.599-15-15V271c0-8.401,6.599-15,15-15h60
		c8.401,0,15,6.599,15,15s-6.599,15-15,15h-45v30h15c8.401,0,15,6.599,15,15s-6.599,15-15,15h-15v30h45
		C264.401,376,271,382.599,271,391z"/>
	<path style="fill:#FEDB41;" d="M439.633,256.454c-8.115-2.036-16.187,2.856-18.179,10.913L406,329.154l-15.454-61.787
		c-1.404-5.633-6.513-11.043-14.509-11.087c-7.801-0.027-12.994,4.68-14.583,11.087L346,329.154l-15.454-61.787
		c-2.007-8.057-10.137-12.935-18.179-10.913c-8.042,2.007-12.935,10.151-10.913,18.179l30,120C333.124,401.313,339.115,406,346,406
		s12.876-4.688,14.546-11.367L376,332.816l15.454,61.816C393.124,401.313,399.115,406,406,406s12.876-4.688,14.546-11.367l30-120
		C452.567,266.605,447.675,258.461,439.633,256.454z"/>
</g>
<path style="fill:#C5C9F7;" d="M256,16c-24.901,0-45,20.099-45,45s20.099,45,45,45s45-20.099,45-45S280.901,16,256,16z"/>
<path style="fill:#A8AFF1;" d="M301,61c0,24.901-20.099,45-45,45V16C280.901,16,301,36.099,301,61z"/>
<g>
</g>
<g>
</g>
<g>
</g>
<g>
</g>
<g>
</g>
<g>
</g>
<g>
</g>
<g>
</g>
<g>
</g>
<g>
</g>
<g>
</g>
<g>
</g>
<g>
</g>
<g>
</g>
<g>
</g>
</svg>
