<?xml version="1.0" encoding="utf-8"?>
<!-- Generator: Adobe Illustrator 24.1.1, SVG Export Plug-In . SVG Version: 6.00 Build 0)  -->
<svg version="1.1" id="Слой_1" xmlns="http://www.w3.org/2000/svg" xmlns:xlink="http://www.w3.org/1999/xlink" x="0px" y="0px"
	 viewBox="0 0 16 16" style="enable-background:new 0 0 16 16;" xml:space="preserve">
<style type="text/css">
	.st0{fill:#B4C6CC;}
	.st1{fill:#5B5B5B;}
	.st2{fill:#C9C9C9;}
	.st3{fill:#7A7A7A;}
	.st4{fill:#73858C;}
</style>
<path class="st0" d="M14.31,6.25V3.76V3.68c0-1.11-0.9-2.02-2.02-2.02H3.67c-1.11,0-2.02,0.9-2.02,2.02v8.64
	c0,1.11,0.9,2.02,2.02,2.02h8.63c1.11,0,2.02-0.9,2.02-2.02V12.2V9.71V6.25z"/>
<path class="st1" d="M3.16,12.65L3.16,12.65c-0.38-0.38-0.38-1,0-1.38l2.4-2.4c0.38-0.38,1-0.38,1.38,0l0,0c0.38,0.38,0.38,1,0,1.38
	l-2.4,2.4C4.16,13.03,3.54,13.03,3.16,12.65z"/>
<path class="st1" d="M12.48,3.33L12.48,3.33c0.38,0.38,0.38,1,0,1.38l-2.4,2.4c-0.38,0.38-1,0.38-1.38,0l0,0
	c-0.38-0.38-0.38-1,0-1.38l2.4-2.4C11.48,2.95,12.1,2.95,12.48,3.33z"/>
<path class="st1" d="M8.7,8.87L8.7,8.87c0.38-0.38,1-0.38,1.38,0l2.4,2.4c0.38,0.38,0.38,1,0,1.38l0,0c-0.38,0.38-1,0.38-1.38,0
	l-2.4-2.4C8.32,9.87,8.32,9.25,8.7,8.87z"/>
<path class="st1" d="M6.94,7.11L6.94,7.11c-0.38,0.38-1,0.38-1.38,0l-2.4-2.4c-0.38-0.38-0.38-1,0-1.38l0,0c0.38-0.38,1-0.38,1.38,0
	l2.4,2.4C7.32,6.11,7.32,6.73,6.94,7.11z"/>
<circle class="st2" cx="7.82" cy="7.99" r="2.2"/>
<path class="st3" d="M7.82,10.85c-0.73,0-1.47-0.28-2.02-0.84c-1.12-1.12-1.12-2.93,0-4.05s2.93-1.12,4.05,0
	c1.12,1.12,1.12,2.93,0,4.05l0,0C9.29,10.57,8.56,10.85,7.82,10.85z M7.82,5.96c-0.52,0-1.04,0.2-1.43,0.59
	c-0.79,0.79-0.79,2.08,0,2.87c0.79,0.79,2.08,0.79,2.87,0c0.79-0.79,0.79-2.08,0-2.87C8.86,6.16,8.34,5.96,7.82,5.96z"/>
<path class="st4" d="M13.62,0.02H2.37c-1.3,0-2.36,1.06-2.36,2.36v11.25c0,1.3,1.06,2.36,2.36,2.36h11.25c1.3,0,2.36-1.06,2.36-2.36
	V2.38C15.99,1.08,14.93,0.02,13.62,0.02z M14.2,12.24c0,1.09-0.89,1.98-1.98,1.98H3.74c-1.09,0-1.98-0.89-1.98-1.98V3.77
	c0-1.09,0.89-1.98,1.98-1.98h8.48c1.09,0,1.98,0.89,1.98,1.98v0.09V6.3v3.39v2.44V12.24z"/>
<path class="st1" d="M2.31,9.27H1.22c-0.35,0-0.63-0.28-0.63-0.63v-1.3c0-0.35,0.28-0.63,0.63-0.63h1.09c0.35,0,0.63,0.28,0.63,0.63
	v1.3C2.93,8.99,2.65,9.27,2.31,9.27z"/>
</svg>
